<svg width="25" height="21" viewBox="0 0 25 21" fill="none" xmlns="http://www.w3.org/2000/svg">
<g id="exit_to_app-24px.svg" clip-path="url(#clip0_27_437)">
<path id="Vector" d="M10.6449 15.59L12.0549 17L17.0549 12L12.0549 7L10.6449 8.41L13.2249 11H3.55493V13H13.2249L10.6449 15.59ZM19.5549 3H5.55493C4.44493 3 3.55493 3.9 3.55493 5V9H5.55493V5H19.5549V19H5.55493V15H3.55493V19C3.55493 20.1 4.44493 21 5.55493 21H19.5549C20.6549 21 21.5549 20.1 21.5549 19V5C21.5549 3.9 20.6549 3 19.5549 3Z" fill="#5F6368"/>
</g>
<defs>
<clipPath id="clip0_27_437">
<rect width="24" height="24" fill="white" transform="translate(0.554932)"/>
</clipPath>
</defs>
</svg>
